<svg xmlns="http://www.w3.org/2000/svg" width="37" height="24" viewBox="0 0 37 24">
  <path id="Exclusion_2" data-name="Exclusion 2" d="M134-812H105a4.005,4.005,0,0,1-4-4v-16a4.005,4.005,0,0,1,4-4h29a4,4,0,0,1,4,4v16A4,4,0,0,1,134-812Zm-9.416-14.851a2.9,2.9,0,0,0-2.444,1.179,5.4,5.4,0,0,0-.887,3.293,5.4,5.4,0,0,0,.872,3.258,2.83,2.83,0,0,0,2.4,1.176,2.722,2.722,0,0,0,2.456-1.268h.1l.457,1.114h1.813v-11.957h-2.371v2.751a9.559,9.559,0,0,0,.178,1.714h-.077A2.843,2.843,0,0,0,124.584-826.851Zm-10.992-2.528-4,11.281h2.588l.821-2.673h4.129l.821,2.674h2.588l-4.013-11.281Zm11.758,9.567a1.451,1.451,0,0,1-1.262-.635,3.346,3.346,0,0,1-.442-1.9,3.539,3.539,0,0,1,.437-1.932,1.394,1.394,0,0,1,1.228-.665,1.611,1.611,0,0,1,1.4.6,3.509,3.509,0,0,1,.43,1.983v.254a3.034,3.034,0,0,1-.462,1.775A1.613,1.613,0,0,1,125.351-819.812Zm-8.791-2.958h-2.951c.8-2.566,1.291-4.2,1.463-4.865.04.179.107.425.205.753s.529,1.705,1.282,4.11Z" transform="translate(-101 836)" fill="#ffffd8"/>
</svg>
