<svg width="20" height="20" viewBox="0 0 20 20" fill="none" xmlns="http://www.w3.org/2000/svg">
<path d="M4.46001 5.16003L5.00001 7.46003L4.46001 9.75003L6.47001 10.99L7.70001 13L10 12.46L12.3 13L13.53 10.99L15.54 9.75003L15 7.46003L15.54 5.16003L13.54 3.92003L12.3 1.91003L10 2.46003L7.71001 1.92003L6.46001 3.92003L4.46001 5.16003ZM10.01 11.5C8.94914 11.5 7.93172 11.0786 7.18158 10.3285C6.43143 9.57832 6.01001 8.5609 6.01001 7.50003C6.01001 6.43917 6.43143 5.42175 7.18158 4.67161C7.93172 3.92146 8.94914 3.50003 10.01 3.50003C12.21 3.50003 14 5.29003 14 7.49003C14 9.71003 12.21 11.5 10.01 11.5ZM9.99001 10.5C8.33001 10.5 7.00001 9.16003 7.00001 7.50003C7.00001 5.85003 8.33001 4.50003 9.99001 4.50003C11.65 4.50003 13 5.85003 13 7.50003C13 9.16003 11.65 10.5 9.99001 10.5ZM13.83 11.6L12.55 13.84L10.47 13.37L13 19.2L14.4 17H16.9L13.83 11.6ZM6.13001 11.67L7.38001 13.92L9.51001 13.41L7.00001 19.2L5.60001 17H3.10001L6.13001 11.67Z" fill="url(#paint0_linear_86_50)"/>
<defs>
<linearGradient id="paint0_linear_86_50" x1="3.10001" y1="10.555" x2="16.9" y2="10.555" gradientUnits="userSpaceOnUse">
<stop stop-color="#9796F0"/>
<stop offset="1" stop-color="#FBC7D4"/>
</linearGradient>
</defs>
</svg>
