<svg xmlns="http://www.w3.org/2000/svg" width="40" height="40" viewBox="0 0 40 40">
  <g id="Group_38" data-name="Group 38" transform="translate(-33 -532)">
    <rect id="Rectangle_54" data-name="Rectangle 54" width="40" height="40" transform="translate(33 532)" fill="#fff" opacity="0"/>
    <g id="clear-star-movie" transform="translate(40.501 539.762)">
      <path id="Path_22" data-name="Path 22" d="M21.5,7.54V4.74a.5.5,0,0,0-.15-.36A.4.4,0,0,0,21,4.24L3,4.47A.5.5,0,0,0,2.5,5V7.8a.49.49,0,0,0,.07.2.49.49,0,0,0-.07.24v11a.5.5,0,0,0,.5.5H21a.5.5,0,0,0,.5-.5v-11a.5.5,0,0,0-.16-.36A.49.49,0,0,0,21.5,7.54ZM7,5.42l.62,1.79H5.87L5.22,5.44Zm3.73,0,.62,1.79H9.6L9,5.4Zm3.73,0,.62,1.79H13.33l-.62-1.79Zm3.73,0,.62,1.79L17,7.09,16.42,5.3Zm-14.31,2H3.5v-1Zm16.64-1-.35-1h.35Zm0,12.52H3.5v-10h17Z" fill="#fffffe"/>
      <path id="Path_23" data-name="Path 23" d="M13,14.87l-.31,1.8a.5.5,0,0,0,.73.53L15,16.35l1.62.85a.49.49,0,0,0,.23.06.5.5,0,0,0,.49-.58L17,14.87l1.31-1.28a.5.5,0,0,0-.28-.85l-1.81-.26-.81-1.64a.52.52,0,0,0-.9,0l-.81,1.64-1.81.26a.5.5,0,0,0-.28.85Z" fill="#fffffe"/>
    </g>
  </g>
</svg>
