<svg xmlns="http://www.w3.org/2000/svg" width="35" height="24" viewBox="0 0 35 24">
  <path id="Exclusion_1" data-name="Exclusion 1" d="M-1964-58h-27a4,4,0,0,1-4-4V-78a4,4,0,0,1,4-4h27a4,4,0,0,1,4,4v16A4,4,0,0,1-1964-58Zm-12.307-16.865v10h3.79a4.772,4.772,0,0,0,2.449-.593,3.842,3.842,0,0,0,1.538-1.722,6.453,6.453,0,0,0,.53-2.744v-.014a6.1,6.1,0,0,0-.534-2.668,3.8,3.8,0,0,0-1.541-1.681,4.861,4.861,0,0,0-2.443-.579Zm-8.678,5.787h4.337v4.214h2.015v-10h-2.015V-70.8h-4.337v-4.062H-1987v10h2.015v-4.213Zm12.147,2.488h-1.454v-6.548h1.454a2.858,2.858,0,0,1,1.5.377,2.435,2.435,0,0,1,.954,1.1,4.226,4.226,0,0,1,.33,1.757v.014a4.482,4.482,0,0,1-.324,1.8,2.409,2.409,0,0,1-.944,1.12A2.854,2.854,0,0,1-1972.838-66.59Z" transform="translate(1995 82)" fill="#fff"/>
</svg>
