<svg xmlns="http://www.w3.org/2000/svg" width="40" height="40" viewBox="0 0 40 40">
    <g id="Group_5" data-name="Group 5">
        <g id="clear-like-outline">
            <path id="Path_2" data-name="Path 2"
                d="M24.98,13.3a.665.665,0,0,0-.665-.625h-6.36a25.626,25.626,0,0,0,2.661-5.083,15.155,15.155,0,0,0,0-3.353.665.665,0,0,0-1.1-.439L9.186,12.849a.665.665,0,0,0-.226.506V23.4a.665.665,0,0,0,.572.652L22,25.9h.093a.665.665,0,0,0,.625-.426,55.217,55.217,0,0,0,2.142-6.653,44,44,0,0,0,.12-5.522Zm-1.331,5.322a47.9,47.9,0,0,1-1.889,5.841l-11.416-1.65V13.648l9.074-7.983a7.65,7.65,0,0,1,0,1.57,32.531,32.531,0,0,1-3.193,5.708.665.665,0,0,0,.559,1.038h6.866a35.925,35.925,0,0,1,0,4.67Z"
                transform="translate(1.973)" fill="#fff" />
            <path id="Path_3" data-name="Path 3"
                d="M7.647,10.43H3.655a.665.665,0,0,0-.665.665V21.141a.665.665,0,0,0,.665.665H7.647a.665.665,0,0,0,.665-.665V11.1A.665.665,0,0,0,7.647,10.43ZM6.995,20.5H4.334V11.761H6.995Z"
                transform="translate(0 2.246)" fill="#fff" />
        </g>
    </g>
</svg>