<svg width="24" height="24" viewBox="0 0 24 24" fill="none" xmlns="http://www.w3.org/2000/svg">
<path d="M18.6667 14.6667V22.6667V14.6667ZM14.6667 18.6667H22.6667H14.6667ZM4.00001 9.33337H6.66668C8.13944 9.33337 9.33334 8.13947 9.33334 6.66671V4.00004C9.33334 2.52728 8.13944 1.33337 6.66668 1.33337H4.00001C2.52725 1.33337 1.33334 2.52728 1.33334 4.00004V6.66671C1.33334 8.13947 2.52725 9.33337 4.00001 9.33337ZM17.3333 9.33337H20C21.4728 9.33337 22.6667 8.13947 22.6667 6.66671V4.00004C22.6667 2.52728 21.4728 1.33337 20 1.33337H17.3333C15.8605 1.33337 14.6667 2.52728 14.6667 4.00004V6.66671C14.6667 8.13947 15.8605 9.33337 17.3333 9.33337ZM4.00001 22.6667H6.66668C8.13944 22.6667 9.33334 21.4728 9.33334 20V17.3334C9.33334 15.8606 8.13944 14.6667 6.66668 14.6667H4.00001C2.52725 14.6667 1.33334 15.8606 1.33334 17.3334V20C1.33334 21.4728 2.52725 22.6667 4.00001 22.6667Z" stroke="#E0E0E0" stroke-width="2" stroke-linecap="round" stroke-linejoin="round"/>
</svg>
