<svg xmlns="http://www.w3.org/2000/svg" width="40" height="40" viewBox="0 0 40 40">
    <g id="Group_42" data-name="Group 42" transform="translate(5 0)">
        <g id="clear-not-speaker-outline" >
            <path id="Path_24" data-name="Path 24" d="M10.15,6.18l1.47-1.47V8.16a.5.5,0,0,0,1,0V3.5a.5.5,0,0,0-.85-.35L9.45,5.47a.5.5,0,0,0,.71.71Z" fill="#fff"/>
            <path id="Path_25" data-name="Path 25" d="M15.88,6.5a5.5,5.5,0,0,1,3.94,9.34.5.5,0,1,0,.72.7,6.5,6.5,0,0,0-4.66-11,.5.5,0,1,0,0,1Z" fill="#fff"/>
            <path id="Path_26" data-name="Path 26" d="M15.88,9.93a2.07,2.07,0,0,1,1.5,3.5.5.5,0,1,0,.72.69,3.07,3.07,0,0,0-2.23-5.19.5.5,0,1,0,0,1Z" fill="#fff"/>
            <path id="Path_27" data-name="Path 27" d="M3.35,2.65a.5.5,0,1,0-.71.71L7.11,7.81,6.92,8H2.13a.5.5,0,0,0-.5.5v7a.5.5,0,0,0,.5.5H6.92l4.85,4.85a.5.5,0,0,0,.35.15.49.49,0,0,0,.19,0,.5.5,0,0,0,.31-.46V13.33l4.1,4.1a5.55,5.55,0,0,1-.85.07.5.5,0,1,0,0,1,6.5,6.5,0,0,0,1.68-.24l3.09,3.09a.5.5,0,0,0,.71-.71ZM2.63,9h4v6h-4Zm9,10.29-4-4V8.71l.19-.19,3.81,3.81Z" fill="#fff"/>
        </g>
        <rect id="Rectangle_56" data-name="Rectangle 56" width="40" height="40" fill="#fff" opacity="0"/>
    </g>

</svg>