<svg width="28" height="28" viewBox="0 0 28 28" fill="none" xmlns="http://www.w3.org/2000/svg">
<path fill-rule="evenodd" clip-rule="evenodd" d="M19.7666 17.8653L26.94 25.0387C27.1921 25.291 27.3337 25.6331 27.3336 25.9898C27.3334 26.3465 27.1916 26.6885 26.9393 26.9407C26.687 27.1928 26.3449 27.3344 25.9882 27.3342C25.6315 27.3341 25.2894 27.1923 25.0373 26.94L17.864 19.7667C15.7196 21.4276 13.023 22.2092 10.3228 21.9525C7.62261 21.6958 5.12162 20.42 3.32862 18.3848C1.53562 16.3496 0.585296 13.7077 0.670978 10.9967C0.75666 8.28569 1.87191 5.70913 3.78985 3.79119C5.70779 1.87325 8.28435 0.758002 10.9954 0.672321C13.7064 0.586639 16.3482 1.53696 18.3835 3.32996C20.4187 5.12296 21.6944 7.62395 21.9511 10.3242C22.2078 13.0244 21.4262 15.7209 19.7653 17.8653H19.7666ZM11.3333 19.3333C13.455 19.3333 15.4899 18.4905 16.9902 16.9902C18.4905 15.4899 19.3333 13.4551 19.3333 11.3333C19.3333 9.21159 18.4905 7.17676 16.9902 5.67646C15.4899 4.17617 13.455 3.33332 11.3333 3.33332C9.21158 3.33332 7.17675 4.17617 5.67645 5.67646C4.17616 7.17676 3.33331 9.21159 3.33331 11.3333C3.33331 13.4551 4.17616 15.4899 5.67645 16.9902C7.17675 18.4905 9.21158 19.3333 11.3333 19.3333Z" fill="white"/>
</svg>
