<svg xmlns="http://www.w3.org/2000/svg" width="40" height="40" viewBox="0 0 40 40">
    <g id="Group_4" data-name="Group 4">
        <rect id="Rectangle_11-2" data-name="Rectangle 11" width="40" height="40" fill="#fff"
            opacity="0.002" />
        <path id="clear-arrow-foreward"
            d="M27.284,12.267,18.476,3.7a.706.706,0,0,0-1.2.508V7.891C11.842,8.54,3.5,11.956,3.5,26.791a.706.706,0,1,0,1.412,0c0-5.575,4.164-8.638,12.365-9.1v3.642a.706.706,0,0,0,1.2.508l8.808-8.568a.706.706,0,0,0,0-1.016Zm-8.6,7.4V16.911a.706.706,0,0,0-.212-.508.692.692,0,0,0-.522-.2c-6.789.254-10.53,2.16-12.492,4.573C7.255,12.1,13.042,9.613,18.039,9.19a.706.706,0,0,0,.649-.706V5.873l7.058,6.888Z"
            fill="#fff" />
    </g>
</svg>