<svg width="18" height="18" viewBox="0 0 18 18" fill="none" xmlns="http://www.w3.org/2000/svg">
<path d="M6.05233 10.1928C6.23214 9.83387 6.33333 9.4288 6.33333 9C6.33333 8.5712 6.23214 8.16613 6.05233 7.8072V10.1928ZM6.05233 10.1928C5.61452 11.0668 4.71066 11.6667 3.66667 11.6667C2.19391 11.6667 1 10.4728 1 9C1 7.5272 2.19391 6.33333 3.66667 6.33333C4.71066 6.33333 5.61452 6.93326 6.05233 7.8072V10.1928ZM6.05233 10.1928L11.9476 13.1405L6.05233 10.1928ZM6.05233 7.8072L11.9476 4.85949L6.05233 7.8072ZM11.9476 4.85949C12.3855 5.7334 13.2893 6.33333 14.3333 6.33333C15.8061 6.33333 17 5.13942 17 3.66667C17 2.19391 15.8061 1 14.3333 1C12.8605 1 11.6667 2.19391 11.6667 3.66667C11.6667 4.09544 11.7678 4.50058 11.9476 4.85949ZM11.9476 13.1405C11.7678 13.4995 11.6667 13.9045 11.6667 14.3333C11.6667 15.8061 12.8605 17 14.3333 17C15.8061 17 17 15.8061 17 14.3333C17 12.8605 15.8061 11.6667 14.3333 11.6667C13.2893 11.6667 12.3855 12.2666 11.9476 13.1405Z" stroke="white" stroke-width="2" stroke-linecap="round" stroke-linejoin="round"/>
</svg>
