<svg xmlns="http://www.w3.org/2000/svg" width="40" height="40" viewBox="0 0 40 40">
    <g id="Group_6" data-name="Group 6" >
          <g id="clear-check-round-outline" >
            <path id="Path_28" data-name="Path 28" d="M18.679,8.675,10.7,16.642,7.521,13.5a.6.6,0,1,0-.852.852l3.6,3.6a.6.6,0,0,0,.852,0l8.4-8.4a.6.6,0,0,0-.852-.852Z" transform="translate(0.897 1.303)" fill="#fff"/>
            <path id="Path_29" data-name="Path 29" d="M14,2A12,12,0,1,0,26,14,12,12,0,0,0,14,2Zm0,22.8A10.8,10.8,0,1,1,24.8,14,10.8,10.8,0,0,1,14,24.8Z" fill="#fff"/>
        </g>
    </g>
</svg>