<svg width="18" height="20" viewBox="0 0 18 20" fill="none" xmlns="http://www.w3.org/2000/svg">
<path d="M17.2938 16.0055C16.8423 14.939 16.1871 13.9702 15.3646 13.1531C14.5446 12.3337 13.5733 11.6804 12.5042 11.2293C12.4947 11.2245 12.4851 11.2221 12.4755 11.2173C13.9667 10.1432 14.9361 8.39359 14.9361 6.4196C14.9361 3.1495 12.2792 0.5 9 0.5C5.72077 0.5 3.06387 3.1495 3.06387 6.4196C3.06387 8.39359 4.03328 10.1432 5.52449 11.2197C5.51492 11.2245 5.50534 11.2269 5.49577 11.2317C4.42344 11.6828 3.46121 12.3296 2.63542 13.1555C1.81371 13.9732 1.15857 14.9418 0.706172 16.0079C0.261734 17.0516 0.0220377 18.1706 5.98544e-05 19.3043C-0.00057901 19.3297 0.00390188 19.3551 0.0132386 19.3788C0.0225754 19.4025 0.036579 19.4242 0.0544243 19.4424C0.0722696 19.4606 0.0935956 19.4751 0.117146 19.485C0.140696 19.4949 0.165993 19.5 0.191548 19.5H1.62771C1.73303 19.5 1.8168 19.4165 1.8192 19.3138C1.86707 17.4711 2.60909 15.7454 3.92078 14.4373C5.27795 13.0839 7.08033 12.3392 9 12.3392C10.9197 12.3392 12.7221 13.0839 14.0792 14.4373C15.3909 15.7454 16.1329 17.4711 16.1808 19.3138C16.1832 19.4188 16.267 19.5 16.3723 19.5H17.8085C17.834 19.5 17.8593 19.4949 17.8829 19.485C17.9064 19.4751 17.9277 19.4606 17.9456 19.4424C17.9634 19.4242 17.9774 19.4025 17.9868 19.3788C17.9961 19.3551 18.0006 19.3297 17.9999 19.3043C17.976 18.1633 17.739 17.0534 17.2938 16.0055ZM9 10.5251C7.90134 10.5251 6.8673 10.0979 6.08938 9.32211C5.31146 8.54636 4.88301 7.5152 4.88301 6.4196C4.88301 5.324 5.31146 4.29284 6.08938 3.51709C6.8673 2.74133 7.90134 2.31407 9 2.31407C10.0987 2.31407 11.1327 2.74133 11.9106 3.51709C12.6885 4.29284 13.117 5.324 13.117 6.4196C13.117 7.5152 12.6885 8.54636 11.9106 9.32211C11.1327 10.0979 10.0987 10.5251 9 10.5251Z" fill="white"/>
</svg>
