<svg width="18" height="18" viewBox="0 0 18 18" fill="none" xmlns="http://www.w3.org/2000/svg">
<path d="M15.0676 3.4155V3.81337L15.4553 3.90273C16.0415 4.03783 16.5608 4.3603 16.9307 4.81464C17.3004 5.26869 17.5 5.82829 17.5 6.40278V14.4306C17.5 15.1071 17.2233 15.7591 16.7256 16.2422C16.2274 16.7258 15.5486 17 14.8378 17H3.16216C2.45139 17 1.77262 16.7258 1.27443 16.2422C0.776749 15.7591 0.5 15.1071 0.5 14.4306V2.53585L0.510338 2.4461C0.555611 2.05303 0.74885 1.68673 1.05757 1.41869C1.36667 1.15032 1.76942 1.00002 2.18919 1C2.18919 1 2.1892 1 2.1892 1H13.3784C13.6022 1 13.8236 1.04282 14.0296 1.12566C14.2357 1.2085 14.4219 1.32954 14.5781 1.48117C14.7343 1.63277 14.8574 1.81194 14.941 2.00804C15.0247 2.2041 15.0676 2.4137 15.0676 2.625V3.4155ZM14.1081 3.83333H14.6081V3.33333V2.625C14.6081 2.29965 14.4748 1.99074 14.2426 1.76536C14.0109 1.54047 13.6998 1.41667 13.3784 1.41667H2.18919C1.86777 1.41667 1.55662 1.54047 1.32494 1.76536C1.09275 1.99074 0.95946 2.29965 0.95946 2.625C0.95946 2.95035 1.09275 3.25926 1.32494 3.48464C1.55662 3.70953 1.86777 3.83333 2.18919 3.83333H14.1081ZM14.8378 9.44444H12.8919C12.5705 9.44444 12.2593 9.56825 12.0276 9.79314C11.7955 10.0185 11.6622 10.3274 11.6622 10.6528C11.6622 10.9781 11.7955 11.287 12.0276 11.5124C12.2593 11.7373 12.5705 11.8611 12.8919 11.8611H14.8378C15.1593 11.8611 15.4704 11.7373 15.7021 11.5124C15.9343 11.287 16.0676 10.9781 16.0676 10.6528C16.0676 10.3274 15.9343 10.0185 15.7021 9.79314C15.4704 9.56825 15.1593 9.44444 14.8378 9.44444Z" stroke="white"/>
</svg>
