<svg xmlns="http://www.w3.org/2000/svg" width="16.979" height="16.945" viewBox="0 0 16.979 16.945">
  <path id="clear-star-none" d="M16.94,20.5a.5.5,0,0,1-.24-.06L12,17.84l-4.7,2.6a.5.5,0,0,1-.74-.52l.9-5.54L3.64,10.46a.5.5,0,0,1,.28-.84l5.26-.8,2.36-5a.52.52,0,0,1,.9,0l2.36,5,5.26.8a.5.5,0,0,1,.28.84l-3.82,3.92.9,5.54a.5.5,0,0,1-.49.58ZM12,16.77a.5.5,0,0,1,.24.06l4,2.24-.78-4.77a.5.5,0,0,1,.14-.43L19,10.46l-4.57-.7A.5.5,0,0,1,14,9.48l-2-4.3-2,4.3a.5.5,0,0,1-.38.28L5,10.46l3.32,3.4a.5.5,0,0,1,.14.43l-.78,4.77,4-2.24A.5.5,0,0,1,12,16.77Z" transform="translate(-3.5 -3.561)" fill="#fff"/>
</svg>
